<svg width="31" height="30" viewBox="0 0 31 30" fill="none" xmlns="http://www.w3.org/2000/svg">
<path d="M9.29399 0H21.894C26.694 0 30.594 3.9 30.594 8.7V21.3C30.594 23.6074 29.6774 25.8203 28.0458 27.4518C26.4143 29.0834 24.2014 30 21.894 30H9.29399C4.49399 30 0.593994 26.1 0.593994 21.3V8.7C0.593994 6.39262 1.5106 4.17974 3.14217 2.54817C4.77373 0.916605 6.98661 0 9.29399 0ZM8.99399 3C7.56182 3 6.18831 3.56893 5.17562 4.58162C4.16292 5.59432 3.59399 6.96783 3.59399 8.4V21.6C3.59399 24.585 6.00899 27 8.99399 27H22.194C23.6262 27 24.9997 26.4311 26.0124 25.4184C27.0251 24.4057 27.594 23.0322 27.594 21.6V8.4C27.594 5.415 25.179 3 22.194 3H8.99399ZM23.469 5.25C23.9663 5.25 24.4432 5.44754 24.7948 5.79917C25.1465 6.15081 25.344 6.62772 25.344 7.125C25.344 7.62228 25.1465 8.09919 24.7948 8.45082C24.4432 8.80246 23.9663 9 23.469 9C22.9717 9 22.4948 8.80246 22.1432 8.45082C21.7915 8.09919 21.594 7.62228 21.594 7.125C21.594 6.62772 21.7915 6.15081 22.1432 5.79917C22.4948 5.44754 22.9717 5.25 23.469 5.25ZM15.594 7.5C17.5831 7.5 19.4908 8.29018 20.8973 9.6967C22.3038 11.1032 23.094 13.0109 23.094 15C23.094 16.9891 22.3038 18.8968 20.8973 20.3033C19.4908 21.7098 17.5831 22.5 15.594 22.5C13.6049 22.5 11.6972 21.7098 10.2907 20.3033C8.88417 18.8968 8.09399 16.9891 8.09399 15C8.09399 13.0109 8.88417 11.1032 10.2907 9.6967C11.6972 8.29018 13.6049 7.5 15.594 7.5ZM15.594 10.5C14.4005 10.5 13.2559 10.9741 12.412 11.818C11.5681 12.6619 11.094 13.8065 11.094 15C11.094 16.1935 11.5681 17.3381 12.412 18.182C13.2559 19.0259 14.4005 19.5 15.594 19.5C16.7875 19.5 17.9321 19.0259 18.776 18.182C19.6199 17.3381 20.094 16.1935 20.094 15C20.094 13.8065 19.6199 12.6619 18.776 11.818C17.9321 10.9741 16.7875 10.5 15.594 10.5Z" fill="#9A134E"/>
</svg>
