<svg width="28" height="28" viewBox="0 0 28 28" fill="none" xmlns="http://www.w3.org/2000/svg">
<path fill-rule="evenodd" clip-rule="evenodd" d="M22.974 0.5C24.1675 0.5 25.3121 0.974106 26.156 1.81802C26.9999 2.66193 27.474 3.80653 27.474 5V23C27.474 24.1935 26.9999 25.3381 26.156 26.182C25.3121 27.0259 24.1675 27.5 22.974 27.5H4.974C3.78052 27.5 2.63593 27.0259 1.79202 26.182C0.948105 25.3381 0.473999 24.1935 0.473999 23V5C0.473999 3.80653 0.948105 2.66193 1.79202 1.81802C2.63593 0.974106 3.78052 0.5 4.974 0.5H22.974ZM7.974 11C7.57617 11 7.19464 11.158 6.91334 11.4393C6.63203 11.7206 6.474 12.1022 6.474 12.5V20C6.474 20.3978 6.63203 20.7794 6.91334 21.0607C7.19464 21.342 7.57617 21.5 7.974 21.5C8.37182 21.5 8.75335 21.342 9.03466 21.0607C9.31596 20.7794 9.474 20.3978 9.474 20V12.5C9.474 12.1022 9.31596 11.7206 9.03466 11.4393C8.75335 11.158 8.37182 11 7.974 11ZM12.474 9.5C12.0762 9.5 11.6946 9.65804 11.4133 9.93934C11.132 10.2206 10.974 10.6022 10.974 11V20C10.974 20.3978 11.132 20.7794 11.4133 21.0607C11.6946 21.342 12.0762 21.5 12.474 21.5C12.8718 21.5 13.2534 21.342 13.5347 21.0607C13.816 20.7794 13.974 20.3978 13.974 20V14.51C14.4315 13.994 15.204 13.388 16.0635 13.0205C16.563 12.8075 17.3145 12.7205 17.8365 12.8855C18.0097 12.9294 18.1639 13.0284 18.276 13.1675C18.354 13.2725 18.474 13.5065 18.474 14V20C18.474 20.3978 18.632 20.7794 18.9133 21.0607C19.1946 21.342 19.5762 21.5 19.974 21.5C20.3718 21.5 20.7534 21.342 21.0347 21.0607C21.316 20.7794 21.474 20.3978 21.474 20V14C21.474 12.995 21.219 12.101 20.688 11.384C20.1994 10.7338 19.5155 10.2571 18.7365 10.0235C17.3835 9.599 15.885 9.8345 14.8845 10.2635C14.5642 10.4013 14.2522 10.5575 13.95 10.7315C13.8871 10.3859 13.7049 10.0733 13.4352 9.84824C13.1655 9.62319 12.8253 9.49995 12.474 9.5ZM7.974 6.5C7.57617 6.5 7.19464 6.65804 6.91334 6.93934C6.63203 7.22064 6.474 7.60218 6.474 8C6.474 8.39782 6.63203 8.77936 6.91334 9.06066C7.19464 9.34196 7.57617 9.5 7.974 9.5C8.37182 9.5 8.75335 9.34196 9.03466 9.06066C9.31596 8.77936 9.474 8.39782 9.474 8C9.474 7.60218 9.31596 7.22064 9.03466 6.93934C8.75335 6.65804 8.37182 6.5 7.974 6.5Z" fill="#9A134E"/>
</svg>
