<svg width="32" height="26" viewBox="0 0 32 26" fill="none" xmlns="http://www.w3.org/2000/svg">
<path d="M31.974 3.25C30.819 3.775 29.574 4.12 28.284 4.285C29.604 3.49 30.624 2.23 31.104 0.715C29.859 1.465 28.479 1.99 27.024 2.29C25.839 1 24.174 0.25 22.284 0.25C18.759 0.25 15.879 3.13 15.879 6.685C15.879 7.195 15.939 7.69 16.044 8.155C10.704 7.885 5.94899 5.32 2.78399 1.435C2.22899 2.38 1.91399 3.49 1.91399 4.66C1.91399 6.895 3.03899 8.875 4.77899 10C3.71399 10 2.72399 9.7 1.85399 9.25V9.295C1.85399 12.415 4.07399 15.025 7.01399 15.61C6.07025 15.8694 5.07905 15.9054 4.11899 15.715C4.5264 16.9937 5.3243 18.1126 6.40052 18.9144C7.47674 19.7162 8.77716 20.1605 10.119 20.185C7.8445 21.9858 5.02501 22.9591 2.12399 22.945C1.61399 22.945 1.10399 22.915 0.593994 22.855C3.44399 24.685 6.83399 25.75 10.464 25.75C22.284 25.75 28.779 15.94 28.779 7.435C28.779 7.15 28.779 6.88 28.764 6.595C30.024 5.695 31.104 4.555 31.974 3.25Z" fill="#9A134E"/>
</svg>
